<?xml version="1.0" encoding="utf-8"?>
<!-- Generator: Adobe Illustrator 25.2.3, SVG Export Plug-In . SVG Version: 6.00 Build 0)  -->
<svg version="1.1" id="レイヤー_1" xmlns="http://www.w3.org/2000/svg" xmlns:xlink="http://www.w3.org/1999/xlink" x="0px"
	 y="0px" viewBox="0 0 1000 1000" style="enable-background:new 0 0 1000 1000;" xml:space="preserve">
<style type="text/css">
	.st0{fill:#00C58E;}
	.st1{fill:#2F495E;}
	.st2{fill:#108775;}
	.st3{fill-rule:evenodd;clip-rule:evenodd;fill:#2E495E;}
	.st4{fill-rule:evenodd;clip-rule:evenodd;fill:#00C48D;}
</style>
<g>
	<path class="st0" d="M570.4,249.5l-27.7,48l-94.9-164.3L156.5,637.6h197.2c0,26.5,21.5,48,48,48H156.5c-17.2,0-33-9.2-41.6-24
		c-8.6-14.9-8.6-33.2,0-48l291.2-504.4c8.6-14.9,24.4-24,41.6-24c17.2,0,33,9.2,41.6,24C489.4,109.2,570.4,249.5,570.4,249.5z"/>
	<path class="st1" d="M780.6,613.6l-182.5-316l-27.7-48l-27.7,48l-182.5,316c-8.6,14.9-8.6,33.2,0,48c8.6,14.9,24.4,24,41.6,24
		h337.2c17.2,0,33-9.2,41.6-24C789.1,646.8,789.1,628.5,780.6,613.6L780.6,613.6L780.6,613.6z M401.7,637.6l168.6-292l168.6,292
		L401.7,637.6L401.7,637.6z"/>
	<path class="st2" d="M911.1,661.6c-8.6,14.9-24.4,24-41.6,24H738.9c26.5,0,48-21.5,48-48h82.4l-233.8-405l-37.5,64.9l-27.7-48
		l23.6-40.9c8.6-14.9,24.4-24,41.6-24c17.2,0,33,9.2,41.6,24l233.9,405C919.6,628.5,919.6,646.8,911.1,661.6z"/>
</g>
<g>
	<path class="st3" d="M216.9,759.9c1.5,1.6,2.5,3.8,2.3,6.1v118.7c0,2.5-0.9,5-2.6,6.8c-1.7,1.8-4.2,2.8-6.7,2.8
		c-1.5,0-2.9-0.3-4.4-0.7c-1.2-0.4-2.2-1.1-3.1-2l-76.9-100.1v94.1c0.2,4.6-3.4,8.4-8,8.6c-0.2,0-0.5,0-0.7,0
		c-2.2,0-4.4-0.9-5.8-2.5c-1.6-1.6-2.5-3.7-2.5-6v-119c0-2.5,1-5,2.9-6.7c1.6-1.7,3.9-2.6,6.3-2.6c1.5,0,3.1,0.3,4.4,0.9
		c1.5,0.4,2.6,1.5,3.5,2.5L202,861.1V766c-0.2-4.6,3.4-8.4,8-8.6c0.2,0,0.5,0,0.7,0c2.2,0,4.4,0.7,5.8,2.5H216.9z M375.2,760.2
		c1.6,1.9,2.6,4.4,2.5,6.7v75.2c0.1,9.6-2.2,19.2-6.8,27.7c-4.4,8.2-10.9,14.9-18.9,19.4c-8.2,4.8-17.5,7.3-27.1,7.1
		c-9.5,0-18.9-2.3-27.4-7c-8-4.5-14.5-11.2-18.9-19.2c-4.6-8.5-7-18.1-6.8-27.8V767c0-2.5,0.9-5,2.9-6.7c3.8-3.6,9.8-3.6,13.5,0
		c1.7,1.7,2.8,4.1,2.8,6.7v74.9c-0.1,6.4,1.5,12.7,4.7,18.4c6,10.5,17.2,17,29.3,17c19.3,0.1,35-15.5,35.1-34.8c0-0.2,0-0.4,0-0.6
		V767c0-2.5,0.7-5,2.3-6.8c1.7-1.9,4.1-2.9,6.6-2.8C371.3,757.4,373.6,758.4,375.2,760.2L375.2,760.2z M526.6,879.3
		c1.1,1.6,1.7,3.6,1.6,5.5c0.1,2.5-0.9,5-2.8,6.7c-1.7,1.6-3.9,2.5-6.3,2.5c-3.1,0.1-6-1.5-7.7-3.9l-37.9-50.7l-37.3,50.7
		c-1.7,2.6-4.5,4.1-7.6,4.1c-2.3,0-4.4-0.9-6-2.5c-1.5-1.5-2.5-3.5-2.5-5.5c0-2.3,0.9-4.7,2.3-6.4l40.2-54.6L422.4,771
		c-3-3.6-2.7-9,0.7-12.2c2.8-2.9,7.2-3.6,10.8-1.7c1.4,0.6,2.6,1.7,3.5,2.9l37.6,50.4l37-50c1.6-2.5,4.4-4.1,7.4-4.4
		c2.3,0,4.7,1.2,6.3,2.9c1.6,1.5,2.6,3.6,2.8,5.8c0,2.2-0.7,4.1-2,5.8l-40.8,54.2l40.8,54.6H526.6z M667.2,759.9
		c1.7,1.6,2.9,4.1,2.8,6.6c0,2.5-1,4.8-2.9,6.4c-1.7,1.6-4.2,2.5-6.7,2.3h-34.7V885c0,2.5-0.9,4.8-2.8,6.6c-4.1,3.6-10.2,3.6-14.3,0
		c-1.8-1.7-2.9-4.1-2.9-6.6V775.2H571c-2.5,0-4.8-0.7-6.7-2.5c-1.8-1.7-2.8-4.1-2.8-6.6c0-2.3,0.9-4.7,2.6-6.3
		c1.9-1.7,4.4-2.6,6.7-2.5h89.4C662.8,757.4,665.3,758.1,667.2,759.9z"/>
	<path class="st4" d="M709.7,890.9c-6.3-3.5-11.7-8.7-15.3-15c-1-1.5-1.6-3.4-1.7-5.2c0-2.5,1-4.8,2.9-6.4c1.6-1.7,3.8-2.6,6.1-2.9
		c3.5,0.4,6.7,2.2,8.7,5c4.4,7.3,12.2,11.7,20.5,11.4c13.8,0.4,25.4-10.5,25.8-24.3c0-0.2,0-0.5,0-0.7v-85.7c-0.1-2.6,1-5,2.9-6.7
		c1.9-1.7,4.4-2.8,6.8-2.8c2.6,0,5.1,0.9,7,2.6c1.7,1.8,2.7,4.2,2.6,6.7v86c0.3,15.7-8.1,30.3-21.9,37.9
		c-13.8,7.8-30.6,7.9-44.4,0.3H709.7z M844.5,891.4c-7.7-2.9-14.9-7.3-21-13.1c-2.5-1.9-3.9-4.8-4.1-7.9c0-2.5,1.1-4.8,2.9-6.4
		c1.6-1.7,3.9-2.7,6.3-2.8c2.2,0,4.1,0.7,5.7,2.2c4.7,4.4,10.2,8,16,10.6c6.1,2.3,12.5,3.5,18.9,3.5c7.3,0.1,14.6-1.7,20.8-5.8
		c5.1-2.9,8.4-8.3,8.4-14.3c0.1-6.3-3.1-12.2-8.4-15.7c-7.8-4.6-16.4-7.7-25.3-9.2c-13.4-2.9-23.7-7.3-31-13.5
		c-7.3-6.3-10.8-15-10.8-26.1c-0.1-7.3,1.9-14.4,6.1-20.4c4.2-5.8,9.9-10.5,16.6-13.4c15.1-6,31.9-6.3,47.2-0.7
		c6.5,2.2,12.5,5.7,17.5,10.3c2.6,2,4.4,5.1,4.4,8.3c0,2.4-0.9,4.6-2.6,6.3c-1.6,1.9-3.9,2.9-6.4,2.9c-1.5,0-3.2-0.6-4.4-1.6
		c-8.6-7.7-19.7-11.9-31.2-11.9c-7.3-0.4-14.6,1.5-20.8,5.2c-8,5.3-10.1,16.1-4.8,24c1.3,1.9,2.9,3.5,4.8,4.8
		c7.1,4.2,14.9,7.2,23,8.7c8.6,1.6,16.9,4.4,24.9,7.7c6.1,2.8,11.4,7,15,12.5c3.8,6.4,5.5,13.5,5.2,21c0.1,7.3-2,14.3-6.3,20.1
		c-4.4,6.1-10.5,10.8-17.5,13.7c-15.9,6.1-33.3,6.4-49.4,0.9H844.5z"/>
</g>
</svg>
