<?xml version="1.0" encoding="utf-8"?>
<!-- Generator: Adobe Illustrator 25.4.1, SVG Export Plug-In . SVG Version: 6.00 Build 0)  -->
<svg version="1.1" id="レイヤー_1" xmlns="http://www.w3.org/2000/svg" xmlns:xlink="http://www.w3.org/1999/xlink" x="0px"
	 y="0px" viewBox="0 0 20 20" style="enable-background:new 0 0 20 20;" xml:space="preserve">
<style type="text/css">
	.st0{fill-rule:evenodd;clip-rule:evenodd;fill:#777777;}
</style>
<desc>Created with Sketch.</desc>
<g id="Page-1">
	<g id="Dribbble-Light-Preview" transform="translate(-340.000000, -2319.000000)">
		<g id="icons" transform="translate(56.000000, 160.000000)">
			<path id="clock-_x5B__x23_1315_x5D_" class="st0" d="M302,2169c0-4.4-3.6-8-8-8s-8,3.6-8,8s3.6,8,8,8S302,2173.4,302,2169
				 M304,2169c0,5.5-4.5,10-10,10s-10-4.5-10-10s4.5-10,10-10S304,2163.5,304,2169 M300,2170c0,0.6-0.4,1-1,1h-4c-1.1,0-2-0.9-2-2
				v-5c0-0.6,0.4-1,1-1s1,0.4,1,1v4c0,0.6,0.5,1,1,1h3C299.6,2169,300,2169.4,300,2170"/>
		</g>
	</g>
</g>
</svg>
