<svg version="1.1" id="レイヤー_1" xmlns="http://www.w3.org/2000/svg" x="0" y="0" viewBox="0 0 922.9 149.1" xml:space="preserve"><style>.st0{enable-background:new}</style><g id="レイヤー_2_1_"><g id="レイヤー_1-2"><path d="M6.7 64.3c0-26.5 22.1-48.1 48.6-48.1 14.1 0 25.7 5.4 34.2 13.6L79.2 40.1C73.3 33.7 65 29.8 55.3 29.8c-19 0-33.2 15.4-33.2 34.5 0 19 14.1 34.5 33.2 34.5 9.5 0 18-4.1 23.9-10.5l10 10c-8.7 8.7-20.8 14.1-33.9 14.1-28.6 0-48.6-19.6-48.6-48.1zM99.2 84.3c0-15.4 13.4-28 28.8-28 16.7 0 28.8 11.3 28.8 28 0 15.4-13.4 28-28.8 28-16.7.1-28.8-11.3-28.8-28zm43.2 0c0-8.5-5.9-14.7-14.4-14.7-8.2 0-14.4 6.2-14.4 14.7 0 8.2 6.2 14.7 14.4 14.7 8.5 0 14.4-6.4 14.4-14.7z" class="st0"/><g class="st0"><path d="M165.6 84.3c0-15.4 12.9-28 28-28 5.4 0 10.5 1.3 15.2 4.6V17.5h14.4v66.8c0 15.4-13.4 28-28.8 28-16.7.1-28.8-11.3-28.8-28zm43.2 0c0-8.5-5.9-14.7-14.4-14.7-8.2 0-14.4 6.2-14.4 14.7 0 8.2 6.2 14.7 14.4 14.7 8.5 0 14.4-6.4 14.4-14.7zM238.1 24.9c0-4.9 4.1-8.7 9-8.7s8.7 3.9 8.7 8.7c0 4.9-3.9 9-8.7 9-4.9 0-9-4.1-9-9zm1.5 32.7H254v53.5h-14.4V57.6z"/></g><path d="M271.5 84.3c0-16.7 14.4-28 29.1-28 16.7 0 28.5 11.3 28.5 28V111h-14.4V84.3c0-8.5-5.9-14.7-14.4-14.7-8.2 0-14.4 6.2-14.4 14.7V111h-14.4V84.3zM342.5 111.6h13.6c0 8.7 5.9 14.9 14.7 14.9 8.7 0 14.7-6.7 14.7-15.4v-4.6c-3.1 3.6-9.3 5.9-15.9 5.9-16.2 0-27.5-11.3-27.5-28 0-15.4 13.4-28 28.8-28 16.7 0 28.8 11.3 28.8 28v26.7c0 16.7-13.4 28-28.8 28-17.1 0-28.4-10.5-28.4-27.5zm42.7-27.3c0-8.5-5.9-14.7-14.4-14.7-8.2 0-14.4 6.2-14.4 14.7 0 8.2 6.2 14.7 14.4 14.7 8.4 0 14.4-6.4 14.4-14.7zM439.9 84.8v-.5h15v.8c0 8.4 4.9 13.9 12.6 13.9 7.6 0 12.6-5.5 12.5-13.9V17.5h15v67.4c0 17.7-11.6 27.5-27.5 27.5-16 0-27.6-9.8-27.6-27.6zM512 84.3V57.6h14.4v26.7c0 8.2 6.2 14.7 14.4 14.7 8.5 0 14.4-6.4 14.4-14.7V57.6h14.4v26.7c0 16.7-14.4 28-29.1 28-16.6.1-28.5-11.3-28.5-28z" class="st0"/><g class="st0"><path d="M583.5 84.3c0-16.7 14.4-28 29.1-28 16.7 0 28.5 11.3 28.5 28V111h-14.4V84.3c0-8.5-5.9-14.7-14.4-14.7-8.2 0-14.4 6.2-14.4 14.7V111h-14.4V84.3zM652.4 84.3c0-15.4 13.4-28 28.8-28 8 0 14.4 2.3 20.1 8l-9.5 9.5c-2.8-2.6-6.4-4.1-10.5-4.1-8.2 0-14.4 6.2-14.4 14.7 0 8.2 6.2 14.7 14.4 14.7 3.9 0 7.7-1.8 10.3-4.4l9.5 9.3c-5.1 5.4-12.3 8.5-19.8 8.5-16.8-.1-28.9-11.5-28.9-28.2z"/></g><path d="M721.3 71h-7.2V57.6h7.2V17.5h14.4v40.1h7.2V71h-7.2v40.1h-14.4V71zM757.3 24.9c0-4.9 4.1-8.7 9-8.7s8.7 3.9 8.7 8.7c0 4.9-3.9 9-8.7 9-4.9 0-9-4.1-9-9zm1.6 32.7h14.4v53.5h-14.4V57.6zM788.2 84.3c0-15.4 13.4-28 28.8-28 16.7 0 28.8 11.3 28.8 28 0 15.4-13.4 28-28.8 28-16.7.1-28.8-11.3-28.8-28zm43.2 0c0-8.5-5.9-14.7-14.4-14.7-8.2 0-14.4 6.2-14.4 14.7 0 8.2 6.2 14.7 14.4 14.7 8.4 0 14.4-6.4 14.4-14.7zM857.1 84.3c0-16.7 14.4-28 29.1-28 16.7 0 28.5 11.3 28.5 28V111h-14.4V84.3c0-8.5-5.9-14.7-14.4-14.7-8.2 0-14.4 6.2-14.4 14.7V111h-14.4V84.3z" class="st0"/></g></g></svg>